VIDEO INFO:

Format                           : Matroska
Format version                   : Version 2
File size                        : 4.36 GiB
Duration                         : 1h 48mn
Overall bit rate                 : 5 744 Kbps
Encoded date                     : UTC 2011-09-18 21:54:11
Writing application              : mkvmerge v4.9.1 ('Ich will') gemaakt op Jul 11 2011 23:53:15
Writing library                  : libebml v1.2.1 + libmatroska v1.1.1

Video
ID                               : 1
Format                           : AVC
Format/Info                      : Advanced Video Codec
Format profile                   : High@L4.1
Format settings, CABAC           : Yes
Format settings, ReFrames        : 8 frames
Codec ID                         : V_MPEG4/ISO/AVC
Duration                         : 1h 48mn
Bit rate                         : 5 364 Kbps
Width                            : 1 280 pixels
Height                           : 720 pixels
Display aspect ratio             : 16:9
Frame rate                       : 23.976 fps
Color space                      : YUV
Chroma subsampling               : 4:2:0
Bit depth                        : 8 bits
Scan type                        : Progressive
Bits/(Pixel*Frame)               : 0.243
Stream size                      : 3.99 GiB (91%)
Writing library                  : x264 core 65 r1024M 2652abe
Encoding settings                : cabac=1 / ref=8 / deblock=1:-3:-3 / analyse=0x3:0x113 / me=umh / subme=9 / psy_rd=1.0:0.8 / mixed_ref=1 / me_range=16 / chroma_me=1 / trellis=2 / 8x8dct=1 / cqm=2 / deadzone=21,11 / chroma_qp_offset=-8 / threads=3 / nr=0 / decimate=1 / mbaff=0 / bframes=3 / b_pyramid=1 / b_adapt=2 / b_bias=0 / direct=3 / wpredb=1 / keyint=250 / keyint_min=25 / scenecut=40(pre) / rc=2pass / bitrate=5364 / ratetol=1.0 / qcomp=1.00 / qpmin=10 / qpmax=51 / qpstep=4 / cplxblur=20.0 / qblur=0.5 / vbv_maxrate=50000 / vbv_bufsize=50000 / ip_ratio=1.40 / pb_ratio=1.30 / aq=1:1.10
Language                         : English

Audio
ID                               : 2
Format                           : AC-3
Format/Info                      : Audio Coding 3
Mode extension                   : CM (complete main)
Codec ID                         : A_AC3
Duration                         : 1h 48mn
Bit rate mode                    : Constant
Bit rate                         : 384 Kbps
Channel(s)                       : 6 channels
Channel positions                : Front: L C R, Side: L R, LFE
Sampling rate                    : 48.0 KHz
Bit depth                        : 16 bits
Compression mode                 : Lossy
Stream size                      : 299 MiB (7%)
Title                            : AC3 384 Kbps
Language                         : English

Text
ID                               : 3
Format                           : UTF-8
Codec ID                         : S_TEXT/UTF8
Codec ID/Info                    : UTF-8 Plain Text
Title                            : Dutch
Language                         : Dutch

-------------------------------------

Verenigde Staten
Avontuur
107 minuten

geregisseerd door Randal Kleiser
met Klaus Maria Brandauer, Ethan Hawke en Seymour Cassel

Na de dood van zijn vader gaat hij naar Alaska om in diens voetsporen te treden als goudzoeker. Het is niet makkelijk voor hem in de barre omstandigheden, maar hij vindt warmte bij een wolvenjong, dat van de indianen de naam White Fang heeft meegekregen.

-Ondertiteling (nederlands) in de film met de mogelijkheid deze aan/uit te zetten.
